<mxfile host="app.diagrams.net" modified="2022-02-24T15:25:11.570Z" agent="5.0 (Windows NT 10.0; Win64; x64) AppleWebKit/537.36 (KHTML, like Gecko) Chrome/98.0.4758.102 Safari/537.36" etag="pkGpDgVzOip5Zf3TLrIF" version="16.6.2" type="github">
  <diagram id="ZfgTW8RmMzK-_vYFPty-" name="Page-1">
    <mxGraphModel dx="1515" dy="356" grid="1" gridSize="10" guides="1" tooltips="1" connect="1" arrows="1" fold="1" page="1" pageScale="1" pageWidth="850" pageHeight="1100" math="0" shadow="0">
      <root>
        <mxCell id="0" />
        <mxCell id="1" parent="0" />
        <mxCell id="hog6Gc4PmT9u0CKpANyL-1" value="internet-host&lt;br&gt;Ext: 10.50.21.246&lt;br&gt;Int: 10.10.0.40" style="rounded=1;whiteSpace=wrap;html=1;fillColor=#dae8fc;strokeColor=#6c8ebf;" vertex="1" parent="1">
          <mxGeometry y="745" width="120" height="60" as="geometry" />
        </mxCell>
        <mxCell id="hog6Gc4PmT9u0CKpANyL-12" style="edgeStyle=orthogonalEdgeStyle;rounded=0;orthogonalLoop=1;jettySize=auto;html=1;exitX=1;exitY=0.5;exitDx=0;exitDy=0;entryX=0;entryY=0.5;entryDx=0;entryDy=0;" edge="1" parent="1" source="hog6Gc4PmT9u0CKpANyL-2" target="hog6Gc4PmT9u0CKpANyL-4">
          <mxGeometry relative="1" as="geometry" />
        </mxCell>
        <mxCell id="hog6Gc4PmT9u0CKpANyL-17" style="edgeStyle=orthogonalEdgeStyle;rounded=0;orthogonalLoop=1;jettySize=auto;html=1;exitX=1;exitY=0.5;exitDx=0;exitDy=0;entryX=0;entryY=0.5;entryDx=0;entryDy=0;" edge="1" parent="1" source="hog6Gc4PmT9u0CKpANyL-2" target="hog6Gc4PmT9u0CKpANyL-14">
          <mxGeometry relative="1" as="geometry" />
        </mxCell>
        <mxCell id="hog6Gc4PmT9u0CKpANyL-18" style="edgeStyle=orthogonalEdgeStyle;rounded=0;orthogonalLoop=1;jettySize=auto;html=1;exitX=1;exitY=0.5;exitDx=0;exitDy=0;entryX=0;entryY=0.5;entryDx=0;entryDy=0;" edge="1" parent="1" source="hog6Gc4PmT9u0CKpANyL-2" target="hog6Gc4PmT9u0CKpANyL-15">
          <mxGeometry relative="1" as="geometry" />
        </mxCell>
        <mxCell id="hog6Gc4PmT9u0CKpANyL-19" style="edgeStyle=orthogonalEdgeStyle;rounded=0;orthogonalLoop=1;jettySize=auto;html=1;exitX=1;exitY=0.5;exitDx=0;exitDy=0;entryX=-0.005;entryY=0.573;entryDx=0;entryDy=0;entryPerimeter=0;" edge="1" parent="1" source="hog6Gc4PmT9u0CKpANyL-2" target="hog6Gc4PmT9u0CKpANyL-16">
          <mxGeometry relative="1" as="geometry" />
        </mxCell>
        <mxCell id="hog6Gc4PmT9u0CKpANyL-2" value="capstone-01&lt;br&gt;Ext: 10.50.24.228&lt;br&gt;MAC:&amp;nbsp;fa:16:3e:87:2e:49&lt;br&gt;&lt;br&gt;eth0: 10.1.1.30/25, bc: .127&lt;br&gt;Lo: 127.0.0.1/8&lt;br&gt;Open Ports: 22, 80, (68, 123)" style="rounded=1;whiteSpace=wrap;html=1;fillColor=#fff2cc;strokeColor=#d6b656;" vertex="1" parent="1">
          <mxGeometry x="260" y="720" width="180" height="110" as="geometry" />
        </mxCell>
        <mxCell id="hog6Gc4PmT9u0CKpANyL-4" value="?&lt;br&gt;Ext: ?&lt;br&gt;MAC:&amp;nbsp;fa:16:3e:b0:d7:01&lt;br&gt;&lt;br&gt;eth0:10.1.1.33, bc: .127&lt;br&gt;Lo: 127.0.0.1/8&lt;br&gt;Open Ports: 21, 80" style="rounded=1;whiteSpace=wrap;html=1;fillColor=#fff2cc;strokeColor=#d6b656;" vertex="1" parent="1">
          <mxGeometry x="500" y="630" width="160" height="100" as="geometry" />
        </mxCell>
        <mxCell id="hog6Gc4PmT9u0CKpANyL-9" value="" style="edgeStyle=orthogonalEdgeStyle;rounded=0;orthogonalLoop=1;jettySize=auto;html=1;exitX=1;exitY=0.5;exitDx=0;exitDy=0;endArrow=none;" edge="1" parent="1" source="hog6Gc4PmT9u0CKpANyL-1" target="hog6Gc4PmT9u0CKpANyL-2">
          <mxGeometry relative="1" as="geometry">
            <mxPoint x="120" y="775" as="sourcePoint" />
            <mxPoint x="230" y="775" as="targetPoint" />
          </mxGeometry>
        </mxCell>
        <mxCell id="hog6Gc4PmT9u0CKpANyL-13" value="?&lt;br&gt;Ext: ?&lt;br&gt;MAC:&amp;nbsp;fa:16:3e:b0:d7:01&lt;br&gt;&lt;br&gt;eth?:?, bc: ?&lt;br&gt;Lo: 127.0.0.1/8&lt;br&gt;Open Ports:&amp;nbsp;" style="rounded=1;whiteSpace=wrap;html=1;fillColor=#fff2cc;strokeColor=#d6b656;" vertex="1" parent="1">
          <mxGeometry x="-120" y="860" width="160" height="100" as="geometry" />
        </mxCell>
        <mxCell id="hog6Gc4PmT9u0CKpANyL-14" value="?&lt;br&gt;Ext:&amp;nbsp;&lt;br&gt;MAC: fa:16:3e:07:4f:f2&lt;br&gt;&lt;br&gt;eth0:10.1.1.11, bc: .127&lt;br&gt;Lo: 127.0.0.1/8&lt;br&gt;Open Ports: 21" style="rounded=1;whiteSpace=wrap;html=1;fillColor=#fff2cc;strokeColor=#d6b656;" vertex="1" parent="1">
          <mxGeometry x="500" y="395" width="160" height="100" as="geometry" />
        </mxCell>
        <mxCell id="hog6Gc4PmT9u0CKpANyL-15" value="?&lt;br&gt;Ext: ?&lt;br&gt;MAC: fa:16:3e:03:85:7d&lt;br&gt;&lt;br&gt;eth0:10.1.1.125, bc: .127&lt;br&gt;Lo: 127.0.0.1/8&lt;br&gt;Open Ports: ()" style="rounded=1;whiteSpace=wrap;html=1;fillColor=#fff2cc;strokeColor=#d6b656;" vertex="1" parent="1">
          <mxGeometry x="500" y="770" width="160" height="100" as="geometry" />
        </mxCell>
        <mxCell id="hog6Gc4PmT9u0CKpANyL-16" value="?&lt;br&gt;Ext: ?&lt;br&gt;MAC:&amp;nbsp;fa:16:3e:73:4e:16&lt;br&gt;&lt;br&gt;eth0:10.1.1.126, bc: .127&lt;br&gt;Lo: 127.0.0.1/8&lt;br&gt;Open Ports: ()" style="rounded=1;whiteSpace=wrap;html=1;fillColor=#fff2cc;strokeColor=#d6b656;" vertex="1" parent="1">
          <mxGeometry x="500" y="900" width="160" height="100" as="geometry" />
        </mxCell>
        <mxCell id="hog6Gc4PmT9u0CKpANyL-20" value="?&lt;br&gt;Ext:&amp;nbsp;&lt;br&gt;MAC:&amp;nbsp;&lt;br&gt;&lt;br&gt;eth0:10.1.1.25, bc: .127&lt;br&gt;Lo: 127.0.0.1/8&lt;br&gt;Open Ports: 21" style="rounded=1;whiteSpace=wrap;html=1;fillColor=#fff2cc;strokeColor=#d6b656;" vertex="1" parent="1">
          <mxGeometry x="500" y="510" width="160" height="100" as="geometry" />
        </mxCell>
        <mxCell id="hog6Gc4PmT9u0CKpANyL-21" value="Hint 2a: There is a webservice running on the port that &lt;br style=&quot;font-size: 10px&quot;&gt;corresponds with the RFC that governs private IP &lt;br&gt;addressing -&amp;gt; &lt;font color=&quot;#ff0000&quot;&gt;1918&amp;nbsp;&lt;/font&gt;(wget -r http://10.1.1.11:1918)&lt;br&gt;&lt;b&gt;Net Fundamentals Web Server&lt;/b&gt;" style="text;html=1;align=left;verticalAlign=middle;resizable=0;points=[];autosize=1;strokeColor=none;fillColor=none;fontStyle=2;fontSize=10;" vertex="1" parent="1">
          <mxGeometry x="670" y="397" width="260" height="50" as="geometry" />
        </mxCell>
        <mxCell id="hog6Gc4PmT9u0CKpANyL-22" value="Hint 2b: There is a PCAP saved in &lt;br style=&quot;font-size: 10px&quot;&gt;the share folder of this machine &lt;br style=&quot;font-size: 10px&quot;&gt;that you should look at&amp;nbsp;" style="text;html=1;align=left;verticalAlign=middle;resizable=0;points=[];autosize=1;strokeColor=none;fillColor=none;fontStyle=2;fontSize=10;" vertex="1" parent="1">
          <mxGeometry x="670" y="455" width="170" height="40" as="geometry" />
        </mxCell>
        <mxCell id="hog6Gc4PmT9u0CKpANyL-23" value="Hint 2a: There is a webservice running on the port that corresponds with&amp;nbsp;&lt;br&gt;the RFC that governs IPv4 Header Structure -&amp;gt; &lt;font color=&quot;#ff0000&quot;&gt;791&lt;/font&gt;" style="text;html=1;align=left;verticalAlign=middle;resizable=0;points=[];autosize=1;strokeColor=none;fillColor=none;fontStyle=2;fontSize=10;" vertex="1" parent="1">
          <mxGeometry x="670" y="520" width="340" height="30" as="geometry" />
        </mxCell>
        <mxCell id="hog6Gc4PmT9u0CKpANyL-24" value="Hint 3b: There is a listening TCP port on this system waiiting for your connections&lt;br&gt;build a python 3 TCP stream sender and send it through your tunnel to say Hi&lt;br&gt;Send message as bytes like object and&amp;nbsp;decode response to/from UTF-8 to get flag&amp;nbsp;" style="text;html=1;align=left;verticalAlign=middle;resizable=0;points=[];autosize=1;strokeColor=none;fillColor=none;fontStyle=2;fontSize=10;" vertex="1" parent="1">
          <mxGeometry x="670" y="560" width="380" height="40" as="geometry" />
        </mxCell>
        <mxCell id="hog6Gc4PmT9u0CKpANyL-25" value="Hint 4a: There is another Box (Capstone-05) on a different network (that&lt;br&gt;only this system can see) try to attack this box on one of the port(s)&amp;nbsp;&lt;br&gt;associated with the W32/Blaster Worm. Find out what message it&lt;br&gt;is trying to send -&amp;gt;&amp;nbsp;&lt;font color=&quot;#ff0000&quot;&gt;135T/U (69U, 136U, 137U, 138U, 445T, 593T, 4444T)&lt;/font&gt;" style="text;html=1;align=left;verticalAlign=middle;resizable=0;points=[];autosize=1;strokeColor=none;fillColor=none;fontStyle=2;fontSize=10;" vertex="1" parent="1">
          <mxGeometry x="670" y="635" width="340" height="50" as="geometry" />
        </mxCell>
        <mxCell id="hog6Gc4PmT9u0CKpANyL-26" value="Hint 4b: RIPv2 seems to be running on the 10.1.1.0/25 network. Try to filter&lt;br&gt;it out. Find out what networks its advertising in its updates. What you find&lt;br&gt;will be the IP address of the next enviornment pivot to access from your&amp;nbsp;&lt;br&gt;INTERNET_HOST. Since you are not able to use wireshar,k I would &lt;br&gt;suggest to copy and paste the hexdump to another packet decoder" style="text;html=1;align=left;verticalAlign=middle;resizable=0;points=[];autosize=1;strokeColor=none;fillColor=none;fontStyle=2;fontSize=10;" vertex="1" parent="1">
          <mxGeometry x="670" y="685" width="350" height="70" as="geometry" />
        </mxCell>
        <mxCell id="hog6Gc4PmT9u0CKpANyL-27" value="Hint 1a: This system seems to be a pivot for&lt;br&gt;the Network Fundamentals and Programming&lt;br&gt;sections" style="text;html=1;align=left;verticalAlign=middle;resizable=0;points=[];autosize=1;strokeColor=none;fillColor=none;fontStyle=2;fontSize=10;" vertex="1" parent="1">
          <mxGeometry x="230" y="680" width="220" height="40" as="geometry" />
        </mxCell>
        <mxCell id="hog6Gc4PmT9u0CKpANyL-30" value="&lt;font color=&quot;#000000&quot;&gt;Q1:&amp;nbsp; APIPA 169.254/16 range RFC -&amp;gt;&lt;/font&gt;&lt;font color=&quot;#009900&quot;&gt;&amp;nbsp;3927 -&amp;gt; MzkyNwo=&lt;br&gt;&lt;/font&gt;&lt;font color=&quot;#000000&quot;&gt;Q2:&amp;nbsp; APIPA 169.254/16 range RFC -&amp;gt;&lt;/font&gt;&lt;font color=&quot;#009900&quot;&gt;&amp;nbsp;FF02::2 -&amp;gt;&amp;nbsp;&lt;/font&gt;&lt;font color=&quot;#009900&quot;&gt;RkYwMjo6Mgo=&lt;br&gt;&lt;/font&gt;&lt;font color=&quot;#000000&quot;&gt;Q3:&amp;nbsp; APIPA 169.254/16 range RFC -&amp;gt;&lt;/font&gt;&lt;font color=&quot;#009900&quot;&gt;&amp;nbsp;FF02::2 -&amp;gt;&amp;nbsp;&lt;/font&gt;&lt;font color=&quot;#009900&quot;&gt;RkYwMjo6Mgo=&lt;br&gt;&lt;/font&gt;&lt;font color=&quot;#000000&quot;&gt;Q4:&amp;nbsp; APIPA 169.254/16 range RFC -&amp;gt;&lt;/font&gt;&lt;font color=&quot;#009900&quot;&gt;&amp;nbsp;FF02::2 -&amp;gt;&amp;nbsp;&lt;/font&gt;&lt;font color=&quot;#009900&quot;&gt;RkYwMjo6Mgo=&lt;br&gt;&lt;/font&gt;&lt;font color=&quot;#000000&quot;&gt;Q4:&amp;nbsp; APIPA 169.254/16 range RFC -&amp;gt;&lt;/font&gt;&lt;font color=&quot;#009900&quot;&gt;&amp;nbsp;FF02::2 -&amp;gt;&amp;nbsp;&lt;/font&gt;&lt;font color=&quot;#009900&quot;&gt;RkYwMjo6Mgo=&lt;/font&gt;&lt;font color=&quot;#009900&quot;&gt;&lt;br&gt;&lt;/font&gt;" style="text;html=1;align=left;verticalAlign=middle;resizable=0;points=[];autosize=1;strokeColor=none;fillColor=none;fontSize=10;fontColor=#FF0000;" vertex="1" parent="1">
          <mxGeometry x="930" y="385" width="310" height="70" as="geometry" />
        </mxCell>
      </root>
    </mxGraphModel>
  </diagram>
</mxfile>
